<svg xmlns="http://www.w3.org/2000/svg" xmlns:xlink="http://www.w3.org/1999/xlink" version="1.1" x="0px" y="0px" viewBox="0 0 100 125" enable-background="new 0 0 100 100" xml:space="preserve"><g><path fill="#68b4ff" d="M27.90039,81.23535c0.11523,0.04297,0.2334,0.06348,0.34961,0.06348   c0.40527,0,0.78711-0.24854,0.93701-0.65088l3.25-8.71484c0.19287-0.51758-0.07031-1.09375-0.5874-1.28662   c-0.51611-0.19141-1.09326,0.06982-1.28662,0.5874l-3.25,8.71484C27.12012,80.46631,27.3833,81.04248,27.90039,81.23535z"/><path fill="#68b4ff" d="M31.22803,91.10107c0.18799,0.31104,0.51807,0.48242,0.85645,0.48242   c0.17627,0,0.35498-0.04639,0.5166-0.14453c0.47266-0.28613,0.62402-0.90088,0.33789-1.37305l-3.8335-6.3335   c-0.28516-0.47266-0.90039-0.62402-1.37305-0.33789s-0.62402,0.90088-0.33789,1.37305L31.22803,91.10107z"/><path fill="#68b4ff" d="M28.22363,53.84961c0.22754-0.50293,0.00439-1.0957-0.49902-1.32324l-2.625-1.1875   c-0.50146-0.22607-1.09521-0.00439-1.32324,0.49902c-0.22754,0.50293-0.00439,1.0957,0.49902,1.32324l2.625,1.1875   c0.13379,0.06055,0.27344,0.08936,0.41162,0.08936C27.69287,54.43799,28.05664,54.21924,28.22363,53.84961z"/><path fill="#68b4ff" d="M34.93799,56.41992c0.06299,0.01172,0.12598,0.01758,0.18799,0.01758   c0.4707,0,0.89014-0.3335,0.98145-0.81299c0.10303-0.54248-0.25293-1.06592-0.79541-1.16943l-5.25-1   c-0.53955-0.10205-1.06592,0.25293-1.16943,0.79541c-0.10303,0.54248,0.25293,1.06592,0.79541,1.16943L34.93799,56.41992z"/><path fill="#68b4ff" d="M22.13477,29.78418c-0.25684-0.48828-0.86035-0.67627-1.35059-0.41895   c-0.48877,0.25732-0.67627,0.8623-0.41895,1.35059l4.9375,9.375c0.1792,0.34033,0.52637,0.53418,0.88574,0.53418   c0.15674,0,0.31641-0.03711,0.46484-0.11523c0.48877-0.25732,0.67627-0.8623,0.41895-1.35059L22.13477,29.78418z"/><path fill="#68b4ff" d="M27.3335,41.56543c-0.37793,0.40234-0.3584,1.03516,0.04443,1.41357   c1.89258,1.77783,6.39209,5.96143,7.2998,6.41553c0.14111,0.07031,0.28955,0.10352,0.43506,0.10352   c0.35596,0,0.69629-0.19775,0.87695-0.53711c0.25488-0.47852,0.06494-1.08252-0.40674-1.34961   c-0.55664-0.31543-3.9126-3.34424-6.83594-6.09033C28.3457,41.14404,27.7124,41.16309,27.3335,41.56543z"/><path fill="#68b4ff" d="M36.89941,6.77734c-0.53369-0.12695-1.07666,0.20264-1.20557,0.73975l-3.33301,13.9165   c-0.12842,0.53711,0.20264,1.07666,0.73975,1.20557c0.07812,0.01855,0.15674,0.02734,0.23389,0.02734   c0.45166,0,0.86182-0.30811,0.97168-0.76709l3.33301-13.9165C37.76758,7.4458,37.43652,6.90625,36.89941,6.77734z"/><path fill="#68b4ff" d="M37.30713,37.07715c-0.48145-0.76953-1.90039-6.80322-2.99365-12.19238   c-0.10986-0.5415-0.6416-0.89062-1.17871-0.78125c-0.5415,0.10986-0.89111,0.6377-0.78125,1.17871   c0.71533,3.52637,2.47412,11.85059,3.354,12.99414c0.18994,0.24707,0.4668,0.37158,0.75195,0.37158   c0.20264,0,0.40918-0.06299,0.59131-0.18994C37.48877,38.15332,37.59033,37.5293,37.30713,37.07715z"/><path fill="#000000" d="M37.69043,39.51074c-0.4082,0.37207-0.4375,1.00488-0.06543,1.41309l7.69513,8.44171   c-0.18353,0.35687-0.33911,0.72931-0.46002,1.11884c-2.56787-1.37653-6.22485-1.77393-6.39233-1.7915   c-0.55029-0.05273-1.04053,0.34082-1.09766,0.89062c-0.05762,0.54883,0.34082,1.04102,0.89014,1.09863   c0.03955,0.00391,3.98779,0.43311,6.12744,1.84082c0.02661,0.01752,0.0564,0.02429,0.08398,0.03894   c-0.03986,0.45282-0.06055,0.90472-0.05713,1.34711c-2.11725-0.04431-6.112,0.47211-6.60693,0.5368   c-0.54736,0.07178-0.93359,0.57373-0.86182,1.12158c0.06592,0.50342,0.49609,0.87012,0.99023,0.87012   c0.04346,0,0.0874-0.00293,0.13135-0.0083c1.33679-0.17517,4.92633-0.58411,6.47772-0.5177   c0.09351,0.78882,0.21661,1.46039,0.32001,1.94153c-0.22852,0.13696-0.45355,0.27985-0.67108,0.43402   c-0.01111,0.00745-0.02441,0.00824-0.03534,0.01617c-1.75928,1.27881-10.5918,7.76416-11.72607,9.85693   c-0.26318,0.48584-0.08252,1.09277,0.40283,1.35596c0.15186,0.08203,0.31494,0.12061,0.47559,0.12061   c0.35547,0,0.69922-0.18945,0.88037-0.52344c0.41925-0.77429,3.0069-2.96387,5.91925-5.24664   C39.72235,65.03143,39.5,66.27893,39.5,67.5835c0,4.82361,2.89636,8.93054,6.93225,10.48859   c0.03558,0.01587,0.06958,0.02991,0.10681,0.04163C47.62463,78.51855,48.78607,78.75,50,78.75   c1.19519,0,2.33978-0.22382,3.41101-0.61682c0.05695-0.01459,0.1095-0.03925,0.16302-0.06354   C57.60663,76.5097,60.5,72.4046,60.5,67.5835c0-1.3045-0.22229-2.55188-0.6106-3.71661   c2.91205,2.28253,5.49963,4.47186,5.91919,5.2464c0.18115,0.33398,0.5249,0.52344,0.88037,0.52344   c0.16064,0,0.32422-0.03857,0.47559-0.12061c0.48535-0.26318,0.66602-0.87012,0.40283-1.35596   c-1.13428-2.09277-9.9668-8.57812-11.72607-9.85693c-0.0108-0.00787-0.02399-0.00861-0.03503-0.01599   c-0.21759-0.15417-0.44269-0.29712-0.6712-0.43414c0.10352-0.48114,0.22662-1.15271,0.32025-1.94153   c1.54962-0.06586,5.14026,0.34296,6.47729,0.51764c0.04395,0.00537,0.08789,0.0083,0.13135,0.0083   c0.49414,0,0.92432-0.3667,0.99023-0.87012c0.07129-0.54785-0.31445-1.0498-0.86182-1.12158   c-0.49475-0.06421-4.49023-0.5777-6.60596-0.53595c0.00354-0.44287-0.01721-0.89514-0.05707-1.34845   c0.02722-0.01447,0.05664-0.02118,0.08295-0.03845c2.13965-1.40771,6.08789-1.83691,6.12744-1.84082   c0.54932-0.05762,0.94775-0.5498,0.89014-1.09863s-0.54395-0.94775-1.09766-0.89062   c-0.16748,0.01758-3.8233,0.41498-6.39117,1.79095c-0.12091-0.38977-0.27625-0.76263-0.45996-1.11963l7.69391-8.44037   c0.37207-0.4082,0.34277-1.04102-0.06543-1.41309c-0.40869-0.37109-1.04004-0.3418-1.41309,0.06543l-7.25763,7.96179   c0.48053-1.14526,0.80792-2.47864,0.45636-3.60535c-0.22754-0.73047-0.71875-1.30664-1.42041-1.66602   c-0.49072-0.25293-1.09375-0.05762-1.3457,0.43359s-0.05811,1.09375,0.43359,1.3457   c0.22754,0.11719,0.35449,0.26123,0.42334,0.48242c0.03937,0.12622,0.04395,0.28815,0.04419,0.45374   c0.00006,0.05933,0.00586,0.11218,0.0011,0.17609c-0.01874,0.24878-0.08057,0.53418-0.17078,0.84143   c-0.47595-0.41718-1.04169-0.68457-1.66846-0.74371c-0.96149-0.091-1.80322,0.1778-2.45349,0.74115   c-0.08978-0.30627-0.15125-0.59076-0.16992-0.83887c-0.00476-0.0639,0.00104-0.11676,0.0011-0.17609   c0.00024-0.16559,0.00482-0.32751,0.04419-0.45374c0.06885-0.22119,0.1958-0.36523,0.42334-0.48242   c0.4917-0.25195,0.68555-0.85449,0.43359-1.3457c-0.25195-0.4917-0.85449-0.68799-1.3457-0.43359   c-0.70166,0.35938-1.19287,0.93555-1.42041,1.66602c-0.35156,1.12671-0.02417,2.46008,0.45636,3.60535l-7.25763-7.96179   C38.73096,39.16895,38.1001,39.13965,37.69043,39.51074z M48.7124,48.39648c0.06885-0.24463,0.19287-0.49463,0.34814-0.70459   c0.17871-0.24072,0.46973-0.50732,1.14355-0.44482c0.31885,0.03027,0.58984,0.21436,0.80518,0.54639   c0.08545,0.13184,0.15967,0.27832,0.20215,0.38721c0.03412,0.13446,0.09595,0.3457,0.24323,0.54041   c0.01044,0.01398,0.01794,0.02869,0.02917,0.04218c0.0672,0.0799,0.14752,0.15625,0.25446,0.22064   c2.26947,1.35223,2.0033,5.54529,1.53674,7.9964C52.24323,56.61884,51.1441,56.4165,50,56.4165   c-1.14478,0-2.24438,0.20258-3.27667,0.56439c-0.46906-2.44928-0.73822-6.64062,1.53839-7.99701   C48.48193,48.85303,48.64307,48.64258,48.7124,48.39648z M47.59985,76.37183c-0.25818-0.74426-0.59875-2.16101-0.01929-2.85669   c1.2251-1.46973,0.55713-2.77051,0.19775-3.46924c-0.09424-0.18408-0.25244-0.49219-0.24463-0.58838   c0.01025-0.12256,0.0415-0.17578,0.25635-0.44141c0.35742-0.44092,0.89746-1.10742,0.89746-2.5127   c0-1.66064,0.40479-1.94092,1.3125-1.94092s1.3125,0.28027,1.3125,1.94092c0,1.40527,0.54004,2.07178,0.89746,2.5127   c0.21484,0.26562,0.24609,0.31885,0.25635,0.44141c0.00781,0.09619-0.15039,0.4043-0.24463,0.58838   c-0.35938,0.69873-1.02734,1.99951,0.19775,3.46924c0.57275,0.68762,0.25427,2.07825-0.01807,2.85638   C51.63898,76.61426,50.83435,76.75,50,76.75C49.16608,76.75,48.36188,76.61432,47.59985,76.37183z M54.70947,75.20831   c0.09723-0.98615-0.02386-2.09766-0.75391-2.97345c-0.36377-0.43652-0.29688-0.60986,0.04492-1.2749   c0.229-0.44629,0.51416-1.00098,0.45898-1.66748c-0.0625-0.75391-0.42871-1.20605-0.6958-1.53564   c-0.27197-0.33545-0.45117-0.55664-0.45117-1.25342c0-2.61523-1.11426-3.94092-3.3125-3.94092s-3.3125,1.32568-3.3125,3.94092   c0,0.69678-0.1792,0.91797-0.45117,1.25342c-0.26709,0.32959-0.6333,0.78174-0.6958,1.53564   c-0.05518,0.6665,0.22998,1.22119,0.45898,1.66748c0.3418,0.66504,0.40869,0.83838,0.04492,1.2749   c-0.73004,0.87579-0.85114,1.9873-0.75391,2.97345C43.00757,73.56299,41.5,70.76025,41.5,67.5835   c0-5.05469,3.81299-9.16699,8.5-9.16699s8.5,4.1123,8.5,9.16699C58.5,70.76025,56.99243,73.56299,54.70947,75.20831z"/><path fill="#68b4ff" d="M72.68701,79.94873l-3.25-8.71484c-0.19287-0.51807-0.76953-0.7793-1.28662-0.5874   c-0.51709,0.19287-0.78027,0.76904-0.5874,1.28662l3.25,8.71484c0.1499,0.40234,0.53174,0.65088,0.93701,0.65088   c0.11621,0,0.23438-0.02051,0.34961-0.06348C72.6167,81.04248,72.87988,80.46631,72.68701,79.94873z"/><path fill="#68b4ff" d="M70.89453,83.73242l-3.8335,6.3335c-0.28613,0.47217-0.13477,1.08691,0.33789,1.37305   c0.16162,0.09814,0.34033,0.14453,0.5166,0.14453c0.33838,0,0.66846-0.17139,0.85645-0.48242l3.8335-6.3335   c0.28613-0.47217,0.13477-1.08691-0.33789-1.37305C71.7959,83.1084,71.18018,83.25977,70.89453,83.73242z"/><path fill="#68b4ff" d="M75.72461,53.16113c0.50342-0.22754,0.72656-0.82031,0.49902-1.32324   c-0.22754-0.50342-0.81934-0.72754-1.32324-0.49902l-2.625,1.1875c-0.50342,0.22754-0.72656,0.82031-0.49902,1.32324   c0.16699,0.36963,0.53076,0.58838,0.91162,0.58838c0.1377,0,0.27783-0.02881,0.41162-0.08936L75.72461,53.16113z"/><path fill="#68b4ff" d="M71.10742,54.25049c-0.10352-0.54248-0.62793-0.89648-1.16943-0.79541l-5.25,1   c-0.54248,0.10352-0.89844,0.62695-0.79541,1.16943c0.09131,0.47949,0.51074,0.81299,0.98145,0.81299   c0.06201,0,0.125-0.00586,0.18799-0.01758l5.25-1C70.85449,55.31641,71.21045,54.79297,71.10742,54.25049z"/><path fill="#68b4ff" d="M79.21582,29.36523c-0.48779-0.25586-1.09277-0.07031-1.35059,0.41895l-4.9375,9.375   c-0.25732,0.48828-0.06982,1.09326,0.41895,1.35059c0.14844,0.07812,0.30762,0.11523,0.46484,0.11523   c0.35938,0,0.70654-0.19385,0.88574-0.53418l4.9375-9.375C79.89209,30.22754,79.70459,29.62256,79.21582,29.36523z"/><path fill="#68b4ff" d="M71.25293,41.521c-2.92334,2.74609-6.2793,5.7749-6.8252,6.08447   c-0.49414,0.24707-0.69434,0.84766-0.44727,1.3418C64.15576,49.29785,64.50879,49.5,64.87598,49.5   c0.1499,0,0.30273-0.03369,0.44629-0.10547c0.90771-0.4541,5.40723-4.6377,7.2998-6.41553   c0.40283-0.37842,0.42236-1.01123,0.04443-1.41357C72.28809,41.1626,71.65479,41.14355,71.25293,41.521z"/><path fill="#68b4ff" d="M64.30615,7.51709c-0.12842-0.53711-0.66943-0.86572-1.20557-0.73975   c-0.53711,0.12891-0.86816,0.66846-0.73975,1.20557l3.33301,13.9165c0.10986,0.45898,0.52002,0.76709,0.97168,0.76709   c0.07715,0,0.15576-0.00879,0.23389-0.02734c0.53711-0.12891,0.86816-0.66846,0.73975-1.20557L64.30615,7.51709z"/><path fill="#68b4ff" d="M67.64648,25.28223c0.10986-0.54102-0.23975-1.06885-0.78125-1.17871   c-0.53955-0.1084-1.06885,0.23975-1.17871,0.78125c-1.09326,5.38916-2.51221,11.42285-2.979,12.17188   c-0.33691,0.4375-0.25488,1.06543,0.18262,1.40234c0.18164,0.13965,0.39648,0.20752,0.60938,0.20752   c0.29932,0,0.59619-0.13428,0.79297-0.39014C65.17236,37.13281,66.93115,28.80859,67.64648,25.28223z"/></g></svg>